<svg width="1074" height="388" viewBox="0 0 1074 388" fill="none" xmlns="http://www.w3.org/2000/svg">
<g clip-path="url(#clip0_5_4)">
<g filter="url(#filter0_d_5_4)">
<path d="M234.6 63V113H252.4C259.733 107 263.4 98.2 263.4 86.6C263.4 81.6667 262.4 77 260.4 72.6C258.533 68.2 256.267 65 253.6 63H234.6ZM207.6 179V39H261.8C270.867 43 278 49.1333 283.2 57.4C288.533 65.6667 291.2 75.3333 291.2 86.4C291.2 97.3333 288.467 107.467 283 116.8C277.533 126.133 269.467 132.733 258.8 136.6H234.6V179H207.6ZM305.842 39H359.042C367.442 41.8 374.576 47 380.442 54.6C386.442 62.0667 389.442 71.2667 389.442 82.2C389.442 100.067 382.376 113.2 368.242 121.6L388.442 179H360.442L343.442 128H332.842V179H305.842V39ZM332.842 63V105.6H350.042C352.309 105.067 354.776 102.8 357.442 98.8C360.242 94.6667 361.642 89.8667 361.642 84.4C361.642 78.9333 360.442 74.1333 358.042 70C355.776 65.8667 353.509 63.5333 351.242 63H332.842ZM403.889 179V39H475.689V63H431.289V96.4H470.889V119.6H431.289V155.8H476.489V179H403.889ZM542.975 115H542.175H542.975L553.575 71.2L562.175 39H587.175L596.175 179H569.975L566.175 102.6H565.175L550.775 159H534.375L519.975 102.6H518.975L515.175 179H488.975L497.975 39H522.975L531.575 71.2L542.175 115H542.975ZM612.288 179V39H639.688V179H612.288ZM693.567 155.8H710.367C713.301 152.6 715.367 149.4 716.567 146.2C717.901 142.867 718.567 138 718.567 131.6V39H745.967V121.6C745.967 128.4 745.767 133.733 745.367 137.6C745.101 141.333 744.301 145.933 742.967 151.4C740.701 161.133 734.434 170.333 724.167 179H679.767C669.501 170.6 663.234 161.4 660.967 151.4C658.967 143.267 657.967 133.333 657.967 121.6V39H685.367V131.6C685.367 138 685.967 142.867 687.167 146.2C688.501 149.4 690.634 152.6 693.567 155.8ZM815.241 115H814.441H815.241L825.841 71.2L834.441 39H859.441L868.441 179H842.241L838.441 102.6H837.441L823.041 159H806.641L792.241 102.6H791.241L787.441 179H761.241L770.241 39H795.241L803.841 71.2L814.441 115H815.241Z" fill="black"/>
</g>
<g filter="url(#filter1_d_5_4)">
<path d="M36.8 324.8H54.8C58.5333 320.133 61.4667 313.333 63.6 304.4C65.8667 295.467 67 286.6 67 277.8C67 256.867 63.0667 241.6 55.2 232H36.8V324.8ZM9.6 348V208H67.6C86.5333 224.8 96 247.6 96 276.4C96 305.067 87.1333 328.933 69.4 348H9.6ZM111.553 208H164.753C173.153 210.8 180.286 216 186.153 223.6C192.153 231.067 195.153 240.267 195.153 251.2C195.153 269.067 188.086 282.2 173.953 290.6L194.153 348H166.153L149.153 297H138.553V348H111.553V208ZM138.553 232V274.6H155.753C158.02 274.067 160.486 271.8 163.153 267.8C165.953 263.667 167.353 258.867 167.353 253.4C167.353 247.933 166.153 243.133 163.753 239C161.486 234.867 159.22 232.533 156.953 232H138.553ZM272.847 208C282.18 215.6 289.114 225.8 293.647 238.6C298.18 251.4 300.447 264.6 300.447 278.2C300.447 291.667 298.247 304.467 293.847 316.6C289.447 328.733 282.447 339.2 272.847 348H231.647C222.047 339.2 215.047 328.733 210.647 316.6C206.247 304.467 204.047 291.667 204.047 278.2C204.047 264.6 206.314 251.4 210.847 238.6C215.38 225.8 222.314 215.6 231.647 208H272.847ZM245.047 324.8H259.447C262.78 320.933 265.58 314.667 267.847 306C270.247 297.2 271.447 287.933 271.447 278.2C271.447 268.467 270.314 259.333 268.047 250.8C265.78 242.133 262.98 235.867 259.647 232H245.047C241.714 235.867 238.847 242.133 236.447 250.8C234.18 259.333 233.047 268.467 233.047 278.2C233.047 287.933 234.18 297.2 236.447 306C238.847 314.667 241.714 320.933 245.047 324.8ZM343.045 232V282H360.845C368.179 276 371.845 267.2 371.845 255.6C371.845 250.667 370.845 246 368.845 241.6C366.979 237.2 364.712 234 362.045 232H343.045ZM316.045 348V208H370.245C379.312 212 386.445 218.133 391.645 226.4C396.979 234.667 399.645 244.333 399.645 255.4C399.645 266.333 396.912 276.467 391.445 285.8C385.979 295.133 377.912 301.733 367.245 305.6H343.045V348H316.045ZM423.181 208H471.181V232H432.781L432.181 233.2L464.181 291.6C470.715 303.333 473.981 312.267 473.981 318.4C473.981 331.867 469.515 341.733 460.581 348H407.581V324.8H448.981L449.581 323.6L413.581 259C408.381 249.667 405.781 242.067 405.781 236.2C405.781 222.333 411.581 212.933 423.181 208ZM515.32 348H487.92V208H515.32V264.4H547.32V208H574.72V348H547.32V290H515.32V348ZM593.975 348V208H621.375V348H593.975ZM667.655 232V282H685.455C692.788 276 696.455 267.2 696.455 255.6C696.455 250.667 695.455 246 693.455 241.6C691.588 237.2 689.321 234 686.655 232H667.655ZM640.655 348V208H694.855C703.921 212 711.055 218.133 716.255 226.4C721.588 234.667 724.255 244.333 724.255 255.4C724.255 266.333 721.521 276.467 716.055 285.8C710.588 295.133 702.521 301.733 691.855 305.6H667.655V348H640.655ZM765.897 232V282H783.697C791.03 276 794.697 267.2 794.697 255.6C794.697 250.667 793.697 246 791.697 241.6C789.83 237.2 787.564 234 784.897 232H765.897ZM738.897 348V208H793.097C802.164 212 809.297 218.133 814.497 226.4C819.83 234.667 822.497 244.333 822.497 255.4C822.497 266.333 819.764 276.467 814.297 285.8C808.83 295.133 800.764 301.733 790.097 305.6H765.897V348H738.897ZM837.139 348V208H864.539V348H837.139ZM946.219 348L908.819 270.6L907.819 271L909.019 294.6V348H883.819V208H904.019L940.819 288.4L941.819 288L939.619 263.4V208H964.819V348H946.219ZM1050.41 348H1008.01C998.414 339.2 991.414 328.733 987.014 316.6C982.614 304.467 980.414 291.8 980.414 278.6C980.414 265.267 983.081 252.133 988.414 239.2C993.747 226.267 1001.21 215.867 1010.81 208H1059.41V232H1022.21C1018.75 236 1015.75 242.333 1013.21 251C1010.68 259.533 1009.41 268.667 1009.41 278.4C1009.41 288 1010.55 297.2 1012.81 306C1015.21 314.667 1018.15 320.933 1021.61 324.8H1040.81V270.4H1067.21V304C1067.21 322.4 1061.61 337.067 1050.41 348Z" fill="black"/>
</g>
</g>
<defs>
<filter id="filter0_d_5_4" x="207.6" y="39" width="670.841" height="153" filterUnits="userSpaceOnUse" color-interpolation-filters="sRGB">
<feFlood flood-opacity="0" result="BackgroundImageFix"/>
<feColorMatrix in="SourceAlpha" type="matrix" values="0 0 0 0 0 0 0 0 0 0 0 0 0 0 0 0 0 0 127 0" result="hardAlpha"/>
<feOffset dx="6" dy="9"/>
<feGaussianBlur stdDeviation="2"/>
<feComposite in2="hardAlpha" operator="out"/>
<feColorMatrix type="matrix" values="0 0 0 0 0 0 0 0 0 0 0 0 0 0 0 0 0 0 0.34 0"/>
<feBlend mode="normal" in2="BackgroundImageFix" result="effect1_dropShadow_5_4"/>
<feBlend mode="normal" in="SourceGraphic" in2="effect1_dropShadow_5_4" result="shape"/>
</filter>
<filter id="filter1_d_5_4" x="9.60001" y="208" width="1067.61" height="153" filterUnits="userSpaceOnUse" color-interpolation-filters="sRGB">
<feFlood flood-opacity="0" result="BackgroundImageFix"/>
<feColorMatrix in="SourceAlpha" type="matrix" values="0 0 0 0 0 0 0 0 0 0 0 0 0 0 0 0 0 0 127 0" result="hardAlpha"/>
<feOffset dx="6" dy="9"/>
<feGaussianBlur stdDeviation="2"/>
<feComposite in2="hardAlpha" operator="out"/>
<feColorMatrix type="matrix" values="0 0 0 0 0 0 0 0 0 0 0 0 0 0 0 0 0 0 0.34 0"/>
<feBlend mode="normal" in2="BackgroundImageFix" result="effect1_dropShadow_5_4"/>
<feBlend mode="normal" in="SourceGraphic" in2="effect1_dropShadow_5_4" result="shape"/>
</filter>
<clipPath id="clip0_5_4">
<rect width="1074" height="388" fill="white"/>
</clipPath>
</defs>
</svg>
